<mxfile host="Electron" modified="2023-09-16T00:03:37.532Z" agent="Mozilla/5.0 (Windows NT 10.0; Win64; x64) AppleWebKit/537.36 (KHTML, like Gecko) draw.io/21.5.1 Chrome/112.0.5615.204 Electron/24.6.0 Safari/537.36" etag="FfiJCmsWaOFuydGRadb2" version="21.5.1" type="device">
  <diagram name="Page-1" id="MZzJS_w2sOuu4wmBwtT5">
    <mxGraphModel dx="778" dy="831" grid="1" gridSize="10" guides="1" tooltips="1" connect="1" arrows="1" fold="1" page="1" pageScale="1" pageWidth="827" pageHeight="1169" math="0" shadow="0">
      <root>
        <mxCell id="0" />
        <mxCell id="1" parent="0" />
        <mxCell id="DFRHdUSWC0dCCgBMF-sj-1" value="" style="endArrow=classic;html=1;rounded=0;strokeWidth=4;startArrow=baseDash;startFill=0;sourcePerimeterSpacing=0;startSize=50;endSize=50;" edge="1" parent="1">
          <mxGeometry width="50" height="50" relative="1" as="geometry">
            <mxPoint x="60" y="210" as="sourcePoint" />
            <mxPoint x="981" y="210" as="targetPoint" />
          </mxGeometry>
        </mxCell>
        <mxCell id="DFRHdUSWC0dCCgBMF-sj-4" value="RPO - Recovery Point Objective" style="ellipse;whiteSpace=wrap;html=1;aspect=fixed;fillColor=#dae8fc;strokeColor=#6c8ebf;" vertex="1" parent="1">
          <mxGeometry x="100" y="150" width="110" height="110" as="geometry" />
        </mxCell>
        <mxCell id="DFRHdUSWC0dCCgBMF-sj-6" value="Disaster" style="pointerEvents=1;shadow=0;dashed=0;html=1;strokeColor=none;labelPosition=center;verticalLabelPosition=bottom;outlineConnect=0;verticalAlign=top;align=center;shape=mxgraph.office.clouds.cloud_disaster;fillColor=#ff0000;gradientColor=none;" vertex="1" parent="1">
          <mxGeometry x="465" y="168" width="94" height="74" as="geometry" />
        </mxCell>
        <mxCell id="DFRHdUSWC0dCCgBMF-sj-7" value="&amp;nbsp;Data loss&amp;nbsp;" style="endArrow=classic;startArrow=classic;html=1;rounded=0;" edge="1" parent="1">
          <mxGeometry width="50" height="50" relative="1" as="geometry">
            <mxPoint x="220" y="150" as="sourcePoint" />
            <mxPoint x="460" y="150" as="targetPoint" />
            <mxPoint as="offset" />
          </mxGeometry>
        </mxCell>
        <mxCell id="DFRHdUSWC0dCCgBMF-sj-8" value="RTO - Recovery Time Objective" style="ellipse;whiteSpace=wrap;html=1;aspect=fixed;fillColor=#d5e8d4;strokeColor=#82b366;" vertex="1" parent="1">
          <mxGeometry x="790" y="150" width="110" height="110" as="geometry" />
        </mxCell>
        <mxCell id="DFRHdUSWC0dCCgBMF-sj-11" value="&amp;nbsp;Downtime&amp;nbsp;" style="endArrow=classic;startArrow=classic;html=1;rounded=0;" edge="1" parent="1">
          <mxGeometry width="50" height="50" relative="1" as="geometry">
            <mxPoint x="559" y="150" as="sourcePoint" />
            <mxPoint x="780" y="150" as="targetPoint" />
            <mxPoint as="offset" />
          </mxGeometry>
        </mxCell>
      </root>
    </mxGraphModel>
  </diagram>
</mxfile>
